<svg viewBox="0 0 330 200" xmlns="http://www.w3.org/2000/svg"><g><g><g><g><g><line x1="40" y1="178" x2="35" y2="178" style="visibility: inherit;" fill="rgb(0, 0, 0)" stroke="rgb(204, 204, 204)" stroke-width="1px"></line><line x1="40" y1="155.75" x2="35" y2="155.75" style="visibility: inherit;" fill="rgb(0, 0, 0)" stroke="rgb(204, 204, 204)" stroke-width="1px"></line><line x1="40" y1="133.5" x2="35" y2="133.5" style="visibility: inherit;" fill="rgb(0, 0, 0)" stroke="rgb(204, 204, 204)" stroke-width="1px"></line><line x1="40" y1="111.25" x2="35" y2="111.25" style="visibility: inherit;" fill="rgb(0, 0, 0)" stroke="rgb(204, 204, 204)" stroke-width="1px"></line><line x1="40" y1="89" x2="35" y2="89" style="visibility: inherit;" fill="rgb(0, 0, 0)" stroke="rgb(204, 204, 204)" stroke-width="1px"></line><line x1="40" y1="66.75" x2="35" y2="66.75" style="visibility: inherit;" fill="rgb(0, 0, 0)" stroke="rgb(204, 204, 204)" stroke-width="1px"></line><line x1="40" y1="44.49999999999998" x2="35" y2="44.49999999999998" style="visibility: inherit;" fill="rgb(0, 0, 0)" stroke="rgb(204, 204, 204)" stroke-width="1px"></line><line x1="40" y1="22.25000000000002" x2="35" y2="22.25000000000002" style="visibility: inherit;" fill="rgb(0, 0, 0)" stroke="rgb(204, 204, 204)" stroke-width="1px"></line><line x1="40" y1="0" x2="35" y2="0" style="visibility: inherit;" fill="rgb(0, 0, 0)" stroke="rgb(204, 204, 204)" stroke-width="1px"></line></g><g transform="translate(30, 0)"><text x="0" y="178" dx="0em" dy="0.3em" style="text-anchor: end; visibility: hidden; font-family: Roboto, sans-serif; font-size: 12px; font-weight: 200;" fill="rgb(50, 49, 63)" stroke="none" stroke-width="1px">0.3</text><text x="0" y="155.75" dx="0em" dy="0.3em" style="text-anchor: end; visibility: inherit; font-family: Roboto, sans-serif; font-size: 12px; font-weight: 200;" fill="rgb(50, 49, 63)" stroke="none" stroke-width="1px">0.4</text><text x="0" y="133.5" dx="0em" dy="0.3em" style="text-anchor: end; visibility: hidden; font-family: Roboto, sans-serif; font-size: 12px; font-weight: 200;" fill="rgb(50, 49, 63)" stroke="none" stroke-width="1px">0.5</text><text x="0" y="111.25" dx="0em" dy="0.3em" style="text-anchor: end; visibility: inherit; font-family: Roboto, sans-serif; font-size: 12px; font-weight: 200;" fill="rgb(50, 49, 63)" stroke="none" stroke-width="1px">0.6</text><text x="0" y="89" dx="0em" dy="0.3em" style="text-anchor: end; visibility: hidden; font-family: Roboto, sans-serif; font-size: 12px; font-weight: 200;" fill="rgb(50, 49, 63)" stroke="none" stroke-width="1px">0.7</text><text x="0" y="66.75" dx="0em" dy="0.3em" style="text-anchor: end; visibility: inherit; font-family: Roboto, sans-serif; font-size: 12px; font-weight: 200;" fill="rgb(50, 49, 63)" stroke="none" stroke-width="1px">0.8</text><text x="0" y="44.49999999999998" dx="0em" dy="0.3em" style="text-anchor: end; visibility: hidden; font-family: Roboto, sans-serif; font-size: 12px; font-weight: 200;" fill="rgb(50, 49, 63)" stroke="none" stroke-width="1px">0.9</text><text x="0" y="22.25000000000002" dx="0em" dy="0.3em" style="text-anchor: end; visibility: inherit; font-family: Roboto, sans-serif; font-size: 12px; font-weight: 200;" fill="rgb(50, 49, 63)" stroke="none" stroke-width="1px">1</text><text x="0" y="0" dx="0em" dy="0.3em" style="text-anchor: end; visibility: hidden; font-family: Roboto, sans-serif; font-size: 12px; font-weight: 200;" fill="rgb(50, 49, 63)" stroke="none" stroke-width="1px">1.1</text></g><line x1="40" y1="0" x2="40" y2="178" fill="rgb(0, 0, 0)" stroke="rgb(204, 204, 204)" stroke-width="1px"></line></g></g><g transform="translate(40, 0)" clip-path="url(#clip_0)"><clipPath id="clip_0"><rect width="290" height="178"></rect></clipPath><g><g><g><line x1="0" y1="0" x2="0" y2="178" fill="rgb(0, 0, 0)" stroke="rgb(60, 60, 60)" stroke-width="1px" opacity="0.25"></line><line x1="36.25" y1="0" x2="36.25" y2="178" fill="rgb(0, 0, 0)" stroke="rgb(60, 60, 60)" stroke-width="1px" opacity="0.25"></line><line x1="72.5" y1="0" x2="72.5" y2="178" fill="rgb(0, 0, 0)" stroke="rgb(60, 60, 60)" stroke-width="1px" opacity="0.25"></line><line x1="108.75" y1="0" x2="108.75" y2="178" fill="rgb(0, 0, 0)" stroke="rgb(60, 60, 60)" stroke-width="1px" opacity="0.25"></line><line x1="145" y1="0" x2="145" y2="178" fill="rgb(0, 0, 0)" stroke="rgb(60, 60, 60)" stroke-width="1px" opacity="0.25"></line><line x1="181.25" y1="0" x2="181.25" y2="178" fill="rgb(0, 0, 0)" stroke="rgb(60, 60, 60)" stroke-width="1px" opacity="0.25"></line><line x1="217.5" y1="0" x2="217.5" y2="178" fill="rgb(0, 0, 0)" stroke="rgb(60, 60, 60)" stroke-width="1px" opacity="0.25"></line><line x1="253.75" y1="0" x2="253.75" y2="178" fill="rgb(0, 0, 0)" stroke="rgb(60, 60, 60)" stroke-width="1px" opacity="0.25"></line><line x1="290" y1="0" x2="290" y2="178" fill="rgb(0, 0, 0)" stroke="rgb(60, 60, 60)" stroke-width="1px" opacity="0.25"></line></g><g><line x1="0" y1="178" x2="290" y2="178" fill="rgb(0, 0, 0)" stroke="rgb(60, 60, 60)" stroke-width="1px" opacity="0.25"></line><line x1="0" y1="155.75" x2="290" y2="155.75" fill="rgb(0, 0, 0)" stroke="rgb(60, 60, 60)" stroke-width="1px" opacity="0.25"></line><line x1="0" y1="133.5" x2="290" y2="133.5" fill="rgb(0, 0, 0)" stroke="rgb(60, 60, 60)" stroke-width="1px" opacity="0.25"></line><line x1="0" y1="111.25" x2="290" y2="111.25" fill="rgb(0, 0, 0)" stroke="rgb(60, 60, 60)" stroke-width="1px" opacity="0.25"></line><line x1="0" y1="89" x2="290" y2="89" fill="rgb(0, 0, 0)" stroke="rgb(60, 60, 60)" stroke-width="1px" opacity="0.25"></line><line x1="0" y1="66.75" x2="290" y2="66.75" fill="rgb(0, 0, 0)" stroke="rgb(60, 60, 60)" stroke-width="1px" opacity="0.25"></line><line x1="0" y1="44.49999999999998" x2="290" y2="44.49999999999998" fill="rgb(0, 0, 0)" stroke="rgb(60, 60, 60)" stroke-width="1px" opacity="0.25"></line><line x1="0" y1="22.25000000000002" x2="290" y2="22.25000000000002" fill="rgb(0, 0, 0)" stroke="rgb(60, 60, 60)" stroke-width="1px" opacity="0.25"></line><line x1="0" y1="0" x2="290" y2="0" fill="rgb(0, 0, 0)" stroke="rgb(60, 60, 60)" stroke-width="1px" opacity="0.25"></line></g></g></g><g><g><line x1="0" y1="244.75" x2="290" y2="244.75" fill="rgb(0, 0, 0)" stroke="rgb(153, 153, 153)" stroke-width="1.5px"></line></g></g><g><g><line x1="36.25" y1="0" x2="36.25" y2="178" fill="rgb(0, 0, 0)" stroke="rgb(153, 153, 153)" stroke-width="1.5px"></line></g></g><g><g><g><g><g><path stroke="rgb(51, 187, 238)" stroke-width="2px" d="M44.95,182.21457191836873L45.675,176.32134837672416L46.4,167.84159857393465L47.125,165.22922216426363L47.85,159.95330781330563L48.575,156.7883308038577L49.300000000000004,151.1809892426928L50.025,150.28911678761304L50.75,149.75401418431582L51.474999999999994,149.43296013508882L52.199999999999996,150.47645187262515L52.925,153.5747741040725L53.65,145.54484163311417L54.375,138.25466914309666L55.1,147.47781092565478L55.825,149.30335522725133L56.550000000000004,146.69034462276773L57.275000000000006,147.59476282387132L58,149.37352548106784L58.725,149.20467112546953L59.449999999999996,145.39502589443333L60.175,150.5259039831309L60.9,154.84054246405023L61.625,161.13765799257902L62.35,159.97148308779552L63.075,151.85511322360932L63.8,150.6936237818453L64.525,153.70506257259788L65.25,150.56748169077483L65.97500000000001,154.86548901653325L66.7,158.68040511155627L67.425,157.26101966561822L68.14999999999999,157.64550009887608L68.875,154.1678559093762L69.6,153.3173810963961L70.325,154.04320525678432L71.05,155.7148114535583L71.775,162.89833102192563L72.5,159.79177521207066L73.225,149.2750651272118L73.95,149.14559492659424L74.675,149.0679128062239L75.4,151.49352428266621L76.125,150.47667041986674L76.85000000000001,144.9221139524536L77.575,149.00604497040308L78.30000000000001,152.69251528170733L79.025,149.95995331875687L79.75,148.32041614098665L80.47500000000001,148.5728055348594L81.2,153.66868332091568L81.925,148.073433393619L82.64999999999999,144.71628343724103L83.375,143.93810251154238L84.1,144.70730565665804L84.82499999999999,142.69660679506447L85.55,137.78185237650385L86.27499999999999,139.7774438751001L87,138.50257802559486L87.725,138.97377021642657L88.45,142.96481798012334L89.175,146.59555833887626L89.9,150.0101116022561L90.625,150.82273451215588L91.35,150.07419655756095L92.075,147.15285038373432L92.8,146.6361543799732L93.525,142.61780432851873L94.25,147.6234591960416L94.97500000000001,145.68240796682275L95.7,140.80944478009363L96.42500000000001,140.35789026912582L97.15,141.32306661067327L97.875,141.90217241560174L98.60000000000001,143.48574759909363L99.325,139.4914485594562L100.05,137.09486913567372L100.77499999999999,134.4208097808694L101.5,138.99693001825423L102.225,146.6870463104177L102.94999999999999,145.1205602354484L103.675,142.9445595423387L104.39999999999999,141.63895912647286L105.125,144.5639313261511L105.85,146.3189146459581L106.575,143.66357218864448L107.3,142.07036671425632L108.025,148.53110832801897L108.75,154.8797766973462L109.475,154.98064261733808L110.2,152.56894142067026L110.925,149.88580900213475L111.65,151.9842620002112L112.375,152.00722475092897L113.10000000000001,149.54877900028995L113.825,153.01815569963918L114.55000000000001,147.68311682085312L115.275,145.71820254170964L116,148.24758907582805L116.72500000000001,144.82077684656645L117.45,148.94524270687023L118.175,153.89214562412215L118.89999999999999,151.91584322474068L119.625,150.73006178511181L120.35,150.0185929213345L121.07499999999999,147.11948820199848L121.8,140.43558122066426L122.52499999999999,137.66134873239855L123.25,140.94125338917172L123.975,146.6175286324334L124.7,143.84274058052966L125.425,140.94175604885262L126.15,140.4372770303812L126.875,140.13458961929837L127.6,146.1335303705094L128.325,139.8440065217708L129.05,136.07029221252765L129.775,135.0421753275166L130.5,131.9530817954403L131.225,136.28018152646194L131.95000000000002,138.87644136507495L132.675,140.43419726824274L133.4,141.36885081014339L134.125,140.69353388715567L134.85,136.5800086317586L135.57500000000002,140.29244932878774L136.29999999999998,142.51991374700523L137.025,148.80083654766833L137.75,147.62494607833358L138.475,146.91941179673273L139.2,145.25997952723742L139.92499999999998,143.02821111741207L140.65,141.68915007151688L141.375,142.1218224921079L142.1,142.3814259444625L142.825,142.53718801587527L143.55,142.63064525872295L144.275,140.21449885576857L145,138.76481101399597L145.725,140.36721905759535L146.45,140.09255483562686L147.17499999999998,138.69164460191092L147.9,137.85109846168137L148.625,137.34677077754364L149.35,133.33583906545655L150.075,133.40150343927394L150.8,135.91312546463396L151.52499999999998,138.65620772797817L152.25,139.06594803785654L152.975,138.07568052324874L153.70000000000002,136.24540831394924L154.42499999999998,136.38335668890437L155.15,136.46612571387743L155.875,132.80745202725683L156.60000000000002,131.84835951581925L157.325,131.27290400895674L158.05,132.16374240537405L158.775,132.69824544322444L159.5,134.25505896646948L160.225,131.48081197881203L160.95000000000002,133.52459888782204L161.675,133.51475933269322L162.4,137.2171880488137L163.125,139.438645278486L163.85,140.77151961628937L164.575,141.5712442189714L165.29999999999998,145.75941408218506L166.025,148.27231600011328L166.75,148.54394545033534L167.475,148.70692312046862L168.2,148.80470972254858L168.925,151.3356024324595L169.64999999999998,155.3263614594757L170.375,152.77637272595283L171.1,151.2463794858391L171.82500000000002,147.8561601407012L172.54999999999998,144.5859194854904L173.275,141.38766339182905L174,140.70482143616707L174.72500000000002,139.05900456223506L175.45,135.59929103680622L176.175,140.94013047235114L176.9,136.72796658287587L177.625,131.72844484812106L178.35,132.43706690887265L179.07500000000002,135.33446354639324L179.8,142.01734567863818L180.525,147.26318400611325L181.25,142.99402210420277L181.975,141.6686366635913L182.7,139.6372936986896L183.42499999999998,138.41848791974857L184.15,141.39553690158172L184.875,140.7095455420187L185.6,144.00628317547861L186.325,149.69265820475235L187.05,148.160039072584L187.77499999999998,147.24046759328297L188.5,145.45261300516756L189.225,143.14379120417018L189.95000000000002,146.70294227330433L190.67499999999998,140.18565366344777L191.4,138.7475038986035L192.125,139.12072574023173L192.85000000000002,140.58076789333683L193.575,141.45679318519984L194.3,141.9824083603177L195.025,138.5894450161906L195.75,137.78977871024918L196.475,136.0738672261495L197.20000000000002,133.8082086351549L197.925,132.44881348055813L198.65,131.63317638780006L199.375,129.90768243161037L200.1,135.052941908164L200.825,138.14009759409618L201.54999999999998,139.9923910056555L202.275,143.5759904536607L203,142.01781767326605L203.725,141.08291400502927L204.45,138.04974840301756L205.175,137.46596074234535L205.89999999999998,144.53235304433758L206.625,150.00830012606772L207.35,149.58553592590803L208.07500000000002,146.8596540047426L208.79999999999998,145.22412485204333L209.525,146.7150307614934L210.25,143.9012418579657L210.97500000000002,142.21296851584904L211.7,141.20000451057905L212.425,140.5922261074171L213.15,138.99144736498505L213.875,136.79486841899106L214.6,136.71303275192943L215.32500000000002,137.90004305222732L216.05,138.61224923240601L216.775,139.03957294051327L217.5,139.2959671653776L218.225,135.74146859869174L218.95,133.60876945868023L219.67499999999998,131.09303827413848L220.4,133.29193466501792L221.125,137.0834932482085L221.85,134.41398424839028L222.575,135.28450224956902L223.3,133.33458964920658L224.02499999999998,132.16464208898915L224.75,132.6987852533935L225.475,134.2553828525709L226.20000000000002,135.18934141207737L226.92499999999998,139.458048996979L227.65,142.01927354792L228.375,139.8476758292868L229.10000000000002,138.54471719810692L229.825,138.99905371993378L230.55,138.0355439324951L231.275,137.45743806003188L232,137.11057453655394L232.725,135.66634472193235L233.45000000000002,133.5636951326246L234.175,133.53821707957476L234.9,134.75904194827967L235.625,133.01931346843298L236.35,131.97547638052498L237.075,132.58528582831497L237.79999999999998,134.1872831975238L238.525,135.14848161904908L239.25,138.19742142062722L239.975,135.08234115184152L240.7,136.92162809217453L241.425,139.2613093045025L242.14999999999998,136.95678558270149L242.875,136.8101830501557L243.6,137.9583332311631L244.32500000000002,138.6472233397675L245.04999999999998,142.7688898541279L245.775,145.24188976274417L246.5,144.25346630684425L247.22500000000002,143.66041223330433L247.95,143.30457978918037L248.675,141.85497127457788L249.4,137.27687106421192L250.125,138.2383460395968L250.85,138.8152310248277L251.57500000000002,139.16136201596626L252.3,140.60514965877755L253.025,141.4714222444643" style="fill: none;" fill="none"></path></g><g><path stroke="rgb(204, 51, 17)" stroke-width="2px" d="M36.25,184.9646802097559L36.975,121.40425877086818L37.7,85.59501467036958L38.425000000000004,62.14917816512068L39.150000000000006,48.85371105463902L39.875,42.6048902198252L40.6,35.4966332198281L41.324999999999996,32.11345328812145L42.05,28.87504931872227L42.775,26.45694413110221L43.5,25.015472760219655L44.225,25.142244401489297L44.95,24.477555610525368L45.675,24.079298374684655L46.4,24.82715664969876L47.125,24.782430265847974L47.85,24.755602512299454L48.575,25.725757823977425L49.300000000000004,24.335369969748314L50.025,24.240831521951772L50.75,25.66336910904253L51.474999999999994,25.777248957487902L52.199999999999996,26.83173258905825L52.925,26.724800937163398L53.65,28.38640906712056L54.375,27.164528147054853L55.1,28.650242189669687L55.825,27.32282928973333L56.550000000000004,28.005608609659024L57.275000000000006,28.66181199236434L58,30.041688258597393L58.725,28.404238817995846L59.449999999999996,29.14753120985897L60.175,28.360816491041405L60.9,29.36801369276203L61.625,28.73964719891064L62.35,29.595312105464544L63.075,30.848324045332383L63.8,30.613982310245177L64.525,28.74761537680864L65.25,27.381254016077413L65.97500000000001,27.54759139946114L66.7,28.880078620884174L67.425,28.20034496007905L68.14999999999999,26.55981997245511L68.875,26.068576774530563L69.6,27.00652095174303L70.325,26.829674461453248L71.05,25.983953570693675L71.775,25.7230569335022L72.5,25.56651895118868L73.225,25.965673261125758L73.95,26.944778843666757L74.675,26.05301620003231L75.4,26.257571610430887L76.125,25.394155962836415L76.85000000000001,27.34148146127012L77.575,27.030650767173398L78.30000000000001,26.59761645346042L79.025,27.07740886181097L79.75,26.625671310243018L80.47500000000001,26.84770057381214L81.2,26.487846337443706L81.925,26.025392593554333L82.64999999999999,25.994461549289035L83.375,26.222438819984802L84.1,26.112689285147322L84.82499999999999,26.293375461499778L85.55,25.662174170733035L86.27499999999999,25.529989293527894L87,24.46452947337165L87.725,24.071794783346245L88.45,23.836153969331026L89.175,24.680918374755077L89.9,24.94123581594116L90.625,24.604354486142938L91.35,26.127987578675366L92.075,25.80947733829329L92.8,25.371835296809177L93.525,26.588476065075128L94.25,26.3323116322015L94.97500000000001,26.671684766987227L95.7,26.135695651280425L96.42500000000001,25.074494490091535L97.15,25.177381485142995L97.875,25.732190781497177L98.60000000000001,25.07892746547657L99.325,25.180041270374034L100.05,25.487250755380877L100.77499999999999,24.685427552551765L101.5,24.69740542536424L102.225,24.458056251796766L102.94999999999999,25.05405974423446L103.675,24.91858474037384L104.39999999999999,24.837299738057467L105.125,25.281605835990923L105.85,27.273951385162352L106.575,26.743596824253853L107.3,26.671919984963672L108.025,27.861598672477673L108.75,28.08233409047622L109.475,27.228626447442174L110.2,26.223324762298493L110.925,25.37360785395734L111.65,25.849926602785768L112.375,25.642640752759572L113.10000000000001,26.01134634206715L113.825,27.95833158606305L114.55000000000001,27.15422494479425L115.275,26.425219757964683L116,25.98781664586692L116.72500000000001,25.232302984098375L117.45,26.25822078019368L118.175,26.13415846127263L118.89999999999999,26.30625696717496L119.625,25.916438971393088L120.35,26.915238269825455L121.07499999999999,26.035291855728417L121.8,25.507324007270213L122.52499999999999,25.437079195450202L123.25,26.381086507004756L123.975,25.96133669529098L124.7,26.202563907585954L125.425,25.8542231356397L126.15,25.891759874540263L126.875,25.91428191788058L127.6,25.681253941816454L128.325,26.527591354824548L129.05,25.55616780947295L129.775,24.72677778500703L130.5,25.215292664160636L131.225,26.001473386162726L131.95000000000002,25.24049702827584L132.675,24.537375316288767L133.4,25.101651182929675L134.125,24.20752660701274L134.85,24.164128960785884L135.57500000000002,23.891554475794766L136.29999999999998,23.97454568205512L137.025,25.010489299644473L137.75,25.63205547019807L138.475,25.018846278697065L139.2,24.897456661051407L139.92499999999998,25.31769998978726L140.65,25.816381884283757L141.375,26.855204017559856L142.1,26.98542019820224L142.825,27.063549906587635L143.55,26.617355937109057L144.275,25.610026558843657L145,24.759093034629473L145.725,24.00199171803263L146.45,24.04080802739778L147.17499999999998,24.06409781301689L147.9,23.831535787133372L148.625,23.6919985716033L149.35,23.115199142961988L150.075,24.49488137618856L150.8,24.090005925036433L151.52499999999998,25.326301342688144L152.25,25.328465596701033L152.975,25.57630535117704L153.70000000000002,25.971545101117627L154.42499999999998,25.71561185175865L155.15,24.575903008310135L155.875,24.87822659607421L156.60000000000002,24.566548954222732L157.325,24.626078266366804L158.05,24.168724059143358L158.775,23.894311534809255L159.5,24.715812914041994L160.225,23.976023645680147L160.95000000000002,25.01137607781947L161.675,24.64643864326992L162.4,24.920547977050067L163.125,24.838477680063225L163.85,24.296163707361213L164.575,23.72423412167166L165.29999999999998,23.627617572326255L166.025,23.32310644065068L166.75,22.89386386439041L167.475,23.37593131521247L168.2,24.15824358021559L168.925,24.134559144707595L169.64999999999998,24.366884380657705L170.375,24.01320772771788L171.1,23.554460533885674L171.82500000000002,24.01882521416457L172.54999999999998,23.804372227822004L173.275,25.40146232642784L174,25.373562186944817L174.72500000000002,24.863750308745114L175.45,25.29747617840349L176.175,25.80424759745348L176.9,26.354846346138412L177.625,25.205984907006307L178.35,24.516668043527044L179.07500000000002,24.10307792543953L179.8,23.361846755263684L180.525,24.14979284424634L181.25,23.88295280587108L181.975,24.215920577355813L182.7,23.922629445736725L183.42499999999998,24.48626245853018L184.15,23.591757475118097L184.875,23.7946674816491L185.6,23.916413485567702L186.325,24.23599698517377L187.05,25.167360081515625L187.77499999999998,25.47964204206583L188.5,25.913547115650882L189.225,26.42042605705684L189.95000000000002,26.97109462396874L190.67499999999998,26.31534156546939L191.4,26.661502726947923L192.125,27.362276523158357L192.85000000000002,28.02927669813954L193.575,26.70371491271687L194.3,26.15491373871821L195.025,25.332561239809184L195.75,25.825298634296892L196.475,25.134792177156335L197.20000000000002,24.967024200126964L197.925,25.11289931116429L198.65,24.460816686021857L199.375,24.809174802701225L200.1,24.7716537754539L200.825,24.50260526185056L201.54999999999998,24.094640256433575L202.275,24.096397150438403L203,23.60437418751799L203.725,23.555701611834035L204.45,24.26610575818853L205.175,24.199276451491357L205.89999999999998,24.405714764728L206.625,23.78996475609175L207.35,23.913591850233253L208.07500000000002,23.248155110139937L208.79999999999998,23.5885060626622L209.525,24.28578842868543L210.25,23.964550156534536L210.97500000000002,23.525265991175672L211.7,23.75477259128363L212.425,23.8924765513484L213.15,23.48202182806397L213.875,23.728826093416647L214.6,23.630372755373248L215.32500000000002,24.557449646380405L216.05,23.881005685083196L216.775,24.214752304883085L217.5,23.67538728018478L218.225,24.091381261944072L218.95,23.847905856489685L219.67499999999998,24.68796950705025L220.4,24.20585880355341L221.125,24.409664175965236L221.85,25.2715603959905L222.575,25.54216223075074L223.3,24.96491033502871L224.02499999999998,24.125482098272176L224.75,24.361438152796474L225.475,23.763398788932793L226.20000000000002,23.404575170614603L226.92499999999998,23.18928099962373L227.65,23.306645699097515L228.375,23.37706451878179L229.10000000000002,23.91238760510222L229.825,24.23358145689448L230.55,24.426297767969857L231.275,24.788463451870022L232,25.0057628622101L232.725,24.39653481664934L233.45000000000002,25.263682780400966L234.175,24.551286767563862L234.9,25.603069848204605L235.625,25.001454905501006L236.35,24.887021837133787L237.075,25.31143909543671L237.79999999999998,24.08686345726205L238.525,24.831344067513673L239.25,24.784955334341372L239.975,26.482883984849348L240.7,25.03626628816452L241.425,24.16829567015364L242.14999999999998,23.400977402092167L242.875,23.187122338510267L243.6,23.058809300361073L244.32500000000002,23.474898576794885L245.04999999999998,23.47801624540021L245.775,23.479886846563364L246.5,23.481009207261295L247.22500000000002,22.98860552435676L247.95,22.69316331461406L248.675,23.502046882601604L249.4,23.98737702339411L250.125,25.26472400170277L250.85,24.798447397599887L251.57500000000002,25.258294431716354L252.3,26.02727444669614L253.025,25.74904945910579" style="fill: none;" fill="none"></path></g><g><path stroke="rgb(0, 119, 187)" stroke-width="2px" d="M36.25,142.77083112299442L36.975,136.9765616711229L37.7,138.3561518913021L38.425000000000004,137.54462953837697L39.150000000000006,142.4920445658282L39.875,146.4988351099245L40.6,144.96468719199717L41.324999999999996,150.35829247192194L42.05,147.29241090999787L42.775,142.98551610057754L43.5,140.4181068757984L44.225,141.36124959107974L44.95,141.925819571422L45.675,143.50117040309664L46.4,141.97220674717462L47.125,146.0011282021303L47.85,144.7087906208947L48.575,146.40600259157844L49.300000000000004,142.479473988637L50.025,142.59602110352716L50.75,142.66594664526724L51.474999999999994,143.9440289592301L52.199999999999996,142.23862730853548L52.925,141.21539493772573L53.65,139.36534340342047L54.375,138.2553158490829L55.1,138.8254134940088L55.825,139.16747170753092L56.550000000000004,144.31715247275432L57.275000000000006,146.17084774372367L58,148.51917650852897L58.725,147.4559499702314L59.449999999999996,144.34579323469237L60.175,144.95192010791428L60.9,142.84337542957084L61.625,139.10602521919387L62.35,136.86361511763883L63.075,137.99039247583687L63.8,137.4303471847892L64.525,143.27487586948845L65.25,145.5454813737816L65.97500000000001,145.67173297406228L66.7,144.5113722333001L67.425,138.87071163846804L68.14999999999999,137.95853868352083L68.875,134.93901150938936L69.6,134.3634069056121L70.325,132.78193244279691L71.05,134.30527116623347L71.775,138.92760684951003L72.5,137.9926758102363L73.225,138.6678288872134L73.95,134.12847393125048L74.675,137.58541680795167L75.4,137.1873617853056L76.125,138.18464047225336L76.85000000000001,137.5468959838867L77.575,138.40036099140178L78.30000000000001,137.67632829537584L79.025,138.47802037829518L79.75,136.48681222697707L80.47500000000001,134.05597563565138L81.2,128.8891385792515L81.925,131.96959484808573L82.64999999999999,135.0539803099211L83.375,138.14072063515042L84.1,137.52054408162505L84.82499999999999,135.91232644897502L85.55,137.41961927045466L86.27499999999999,137.0878832628076L87,134.41661825714976L87.725,135.28608265482467L88.45,135.8077612934296L89.175,133.64854507552295L89.9,131.11690364424413L90.625,134.54236558761613L91.35,136.5976427536393L92.075,135.3585856521836L92.8,134.61515139131015L93.525,135.4052025353209L94.25,137.1153449222622L94.97500000000001,139.37753940255507L95.7,138.26263534206785L96.42500000000001,145.0103578041711L97.15,141.64232638303747L97.875,139.6215075303573L98.60000000000001,137.17290451821435L99.325,136.93985441146341L100.05,136.80002434741286L100.77499999999999,135.48001460844773L101.5,137.16023216613826L102.225,136.93225100021778L102.94999999999999,135.55935060013064L103.675,138.44394280927617L104.39999999999999,135.23025398503088L105.125,138.24648484021628L105.85,140.05622335332757L106.575,138.66984571253136L107.3,136.60190742751882L108.025,136.5972561570461L108.75,140.30279784396026L109.475,142.52612285610874L110.2,140.15178541420008L110.925,138.72718294905485L111.65,135.40019806889808L112.375,137.11234224240852L113.10000000000001,138.13962874651475L113.825,138.7560006489785L114.55000000000001,136.6536003893871L115.275,137.8643836347019L116,139.8269626300189L116.72500000000001,141.0045100272091L117.45,141.71103846552325L118.175,139.66273477984876L118.89999999999999,138.43375256844408L119.625,136.46025154106644L120.35,138.98448337383763L121.07499999999999,138.0268017248374L121.8,136.21608103490243L122.52499999999999,138.83798107013922L123.25,141.64723279181612L123.975,147.04111627402006L124.7,150.2774463633424L125.425,144.80257951854026L126.15,145.22599186085674L126.875,141.77170681704885L127.6,140.93524749129895L128.325,140.433371895849L129.05,140.13224653857904L129.775,143.65990377341484L130.5,143.30427471324668L131.225,141.85478822901763L131.95000000000002,139.7489846379454L132.675,144.66605833356945L133.4,141.4357467006765L134.125,141.96978046960368L134.85,142.29020073095998L135.57500000000002,141.24634383964565L136.29999999999998,139.3839180043222L137.025,140.7386832517911L137.75,136.60709825053982L138.475,135.36425895032392L139.2,133.38244366965952L139.92499999999998,133.42946620179572L140.65,130.98545632000778L141.375,135.69960624120245L142.1,137.29198714579113L142.825,140.71963643720724L143.55,140.304005263394L144.275,137.5824031580364L145,134.713330194287L145.725,132.9918864160374L146.45,136.90346429882018L147.17499999999998,136.77819027982696L147.9,136.70302586843098L148.625,135.4218155210586L149.35,137.1253127137048L150.075,133.20296422715325L150.8,132.0856668357571L151.52499999999998,131.41528840091948L152.25,132.24917304055168L152.975,133.9856155248658L153.70000000000002,135.0274810154543L154.42499999999998,135.65260030980738L155.15,139.73600433561703L155.875,138.47771430190505L156.60000000000002,137.72274028167783L157.325,139.7419766182045L158.05,140.95351842012045L158.775,144.1526669023397L159.5,144.8360442911364L160.225,142.77384997575146L160.95000000000002,144.0087541351835" style="fill: none;" fill="none"></path></g><g><path stroke="rgb(255, 112, 67)" stroke-width="2px" d="M36.25,22.86633974313732L36.975,22.48112740367653L37.7,22.363205258943594L38.425000000000004,22.594425150576768L39.150000000000006,22.44503880837656L39.875,22.363205258943594L40.6,22.570255123715558L41.324999999999996,22.69071218760246L42.05,22.51263268143449L42.775,22.406940528830603L43.5,22.343935737771247L44.225,22.306279473171113L44.95,22.2837382434923L45.675,22.270232362324506L46.4,22.755444656252923L47.125,22.55320974105948L47.85,22.43190531184805L48.575,22.359135796640057L49.300000000000004,23.05513688606652L50.025,22.733070356377286L50.75,23.032925891065712L51.474999999999994,24.198996875820853L52.199999999999996,23.665929812955756L52.925,23.34609226951616L53.65,22.907654115217387L54.375,22.644592020394597L55.1,22.48675505069213L55.825,22.392052972259286L56.550000000000004,22.33523176241943L57.275000000000006,22.301139049914646L58,22.280683427235434L58.725,22.26841005536447L59.449999999999996,22.261046032867L60.175,22.25662761959363L60.9,22.253976571710595L61.625,22.498921842807775L62.35,22.39935310506847L63.075,23.07922486214378L63.8,22.99407081435152L64.525,23.189519588195427L65.25,22.813711752615873L65.97500000000001,22.588227051461L66.7,22.452936230837498L67.425,22.371761738488434L68.14999999999999,22.323057043087967L68.875,22.293834225850986L69.6,22.52283643277408L70.325,22.66023775692246L71.05,22.496142654151285L71.775,22.89076269181721L72.5,22.880993512345217L73.225,22.628596107406445L73.95,22.97023476376768L74.675,22.682140858260315L75.4,22.509284514956118L76.125,22.40557070897358L76.85000000000001,22.58987832263914L77.575,22.453926993583448L78.30000000000001,22.618892093405037L79.025,22.717871153297953L79.75,22.53072269197878L80.47500000000001,22.418433615187272L81.2,22.351060169112372L81.925,22.31063610146739L82.64999999999999,22.28638166088046L83.375,22.518364893783183L84.1,22.411018936269933L84.82499999999999,22.839688461085238L85.55,23.096890175974423L86.27499999999999,22.758134105584624L87,22.801416360605707L87.725,22.58084981636345L88.45,22.44850988981806L89.175,22.369105933890857L89.9,22.567999457589444L90.625,22.44079967455369L91.35,22.364479804732202L92.075,23.058300879417562L92.8,22.734980527650507L93.525,22.540988316590326L94.25,22.424592989954203L94.97500000000001,22.847832893295802L95.7,22.60869973597747L96.42500000000001,22.46521984158647L97.15,22.625667802206852L97.875,22.4754006813241L98.60000000000001,22.87831750811772L99.325,22.626990504870637L100.05,22.722730200177352L100.77499999999999,22.5336381201064L101.5,22.420182872063844L102.225,22.352109723238314L102.94999999999999,22.311265833942993L103.675,22.533295397620748L104.39999999999999,22.419977238572418L105.125,22.351986343143455L105.85,22.31119180588608L106.575,22.5332509807866L107.3,22.66648648572687L108.025,22.746427788691093L108.75,22.79439257046959L109.475,22.576635542281757L110.2,22.692517222623984L110.925,22.515510333574397L111.65,22.409306200144623L112.375,22.34558372008678L113.10000000000001,22.307350232052052L113.825,22.5309460364862L114.55000000000001,22.66510351914663L115.275,22.499062111488005L116,22.39943726689281L116.72500000000001,23.079275356713907L117.45,22.994101111283257L118.175,23.18953776609323L118.89999999999999,23.060258556910867L119.625,22.736155134146507L120.35,22.788228977742854L121.07499999999999,22.57293738664572L121.8,22.690298329242403L122.52499999999999,22.760714894800355L123.25,22.80296483413514L123.975,22.581778900481087L124.7,22.6956032375436L125.425,22.76389783978111L126.15,22.558338703868667L126.875,22.681539119576115L127.6,22.50892347174567L128.325,22.651889980302354L129.05,22.491133988181396L129.775,22.641216290163804L130.5,22.484729774098273L131.225,22.390837864458987L131.95000000000002,22.33450271867536L132.675,22.3007016312052L133.4,22.280420978723143L134.125,22.76132968655716L134.85,22.55679781193432L135.57500000000002,23.42022758099378L136.29999999999998,22.952136548596275L137.025,22.67128192915775L137.75,22.502769157494672L138.475,22.40166149449679L139.2,22.34099689669808L139.92499999999998,22.304598138018875L140.65,22.282758882811315L141.375,22.269655329686792L142.1,22.754870297135334L142.825,22.799458075536172L143.55,22.57967484532169L144.275,22.447804907193L145,22.61521884157073L145.725,22.96220840426572L146.45,22.67732504255942L147.17499999999998,22.50639502553564L147.9,22.89691411464468L148.625,22.63814846878679L149.35,22.97596618059537L150.075,22.685579708357192L150.8,22.511347825014298L151.52499999999998,22.653344592263508L152.25,22.98508385468136L152.975,22.6910503128088L153.70000000000002,22.514630187685285L154.42499999999998,22.408778112611174L155.15,22.345266867566707L155.875,22.307160120540015L156.60000000000002,22.28429607232401L157.325,22.517113540649355L158.05,22.410268124389642L158.775,22.34616087463377L159.5,22.554232422035216L160.225,23.172152449799352L160.95000000000002,22.8032914698796" style="fill: none;" fill="none"></path></g><g><path stroke="rgb(187, 187, 187)" stroke-width="2px" d="M44.225,183.25472326998678L44.95,176.94181226316067L45.675,178.1076685222106L46.4,170.14974771792092L47.125,167.8503116350959L47.85,167.70738618962375L48.575,166.38540915437866L49.300000000000004,164.3561218360279L50.025,160.66631479535556L50.75,158.45251691216882L51.474999999999994,155.8881439453896L52.199999999999996,154.3495417672296L52.925,154.66250314219846L53.65,153.61416645566987L54.375,151.7490525421258L55.1,155.57443544051804L55.825,152.92521548770756L56.550000000000004,156.28013052876491L57.275000000000006,154.58474549325575L58,154.8036239239168L58.725,152.4627300183137L59.449999999999996,148.5859702750631L60.175,152.440470574939L60.9,149.80872644945447L61.625,151.9380124905654L62.35,151.97947504539806L63.075,152.00435257813345L63.8,150.78316739442678L64.525,150.05045628594402L65.25,149.61082962148123L65.97500000000001,153.05538607401152L66.7,153.88600824357712L67.425,154.38438154516297L68.14999999999999,152.2111847771393L68.875,148.43504331524582L69.6,152.34991428875918L70.325,148.51828102236723L71.05,147.45541276313864L71.775,144.34547105892767L72.5,141.24339433587636L73.225,145.56270415234064L73.95,144.4459549406002L74.675,146.24812881462944L75.4,144.85720973797456L76.125,142.78654924385359L76.85000000000001,142.7802619955099L77.575,145.2487130475737L78.30000000000001,141.78533952907875L79.025,143.41564786717993L79.75,141.92161212137754L80.47500000000001,144.733523123094L81.2,145.18455802358898L81.925,145.45517896388597L82.64999999999999,144.38143982752933L83.375,147.44553144731984L84.1,145.57565131758966L84.82499999999999,144.45372323975158L85.55,142.5444573449206L86.27499999999999,145.10723025721975L87,144.17267060352964L87.725,147.32026991292L88.45,145.5004943969498L89.175,145.64474078790246L89.9,145.73128862247407L90.625,147.01932902375185L91.35,146.5560415639837L92.075,147.51418078865763L92.8,146.85295262292715L93.525,145.22010402295408L94.25,146.71261826403986L94.97500000000001,143.89979435949354L95.7,139.73987661569612L96.42500000000001,139.71614937048733L97.15,137.2296896222924L97.875,140.68225792310804L98.60000000000001,140.28157815493446L99.325,135.09672349189105L100.05,138.1663665443324L100.77499999999999,136.29981992659944L101.5,135.17989195595965L102.225,133.271823473041L102.94999999999999,139.543649934092L103.675,139.59841336152485L104.39999999999999,142.1034921666475L105.125,146.07876285079072L105.85,142.28336941100926L106.575,141.24224504767517L107.3,141.85367947780287L108.025,142.2205401358795L108.75,141.20454748259735L109.475,140.59495189062804L110.2,138.99308283491163L110.925,140.50418215014474L111.65,142.64695343981944L112.375,143.93261621362424L113.10000000000001,144.70401387790713L113.825,148.87518492567463L114.55000000000001,151.37788755433513L115.275,151.64340008340332L116,151.80270760084423L116.72500000000001,150.66218041077394L117.45,149.97786409673176L118.175,144.6228301585739L118.89999999999999,145.1181422448769L119.625,147.88755289772837L120.35,144.60475513970667L121.07499999999999,147.57952063462622L121.8,141.94771238077573L122.52499999999999,138.56862742846545L123.25,137.7772881576141L123.975,137.30248459510327L124.7,137.01760245759678L125.425,135.61056147455807L126.15,139.71078103446743L126.875,139.6986920217501L127.6,139.6914386141197L128.325,139.68708656954146L129.05,142.15669609145746" style="fill: none;" fill="none"></path></g><g><path stroke="rgb(0, 153, 136)" stroke-width="2px" d="M36.25,183.73199409246445L36.975,121.7124344445765L37.7,85.74595785749206L38.425000000000004,60.814520053127225L39.150000000000006,48.09792963938113L39.875,39.06298531147741L40.6,33.41229275070531L41.324999999999996,29.372601448280317L42.05,27.49074498545334L42.775,25.877771054033197L43.5,25.411118524614643L44.225,24.885139168776043L44.95,23.829705031032912L45.675,24.430978993022084L46.4,24.791441671040083L47.125,23.774578134244255L47.85,23.904381848557406L48.575,23.489122832701756L49.300000000000004,22.993443494917827L50.025,22.696055223964304L50.75,22.517629220256143L51.474999999999994,22.410576123102576L52.199999999999996,22.839426159943194L52.925,22.603654578790227L53.65,22.70872894325847L54.375,23.26485131117649L55.1,23.845060274377325L55.825,24.19318527224113L56.550000000000004,24.15552414604642L57.275000000000006,24.132927479210547L58,23.379756387622443L58.725,22.92785379660807L59.449999999999996,22.90324817404481L60.175,24.12117493247836L60.9,23.865782054419896L61.625,23.2194692259856L62.35,23.57129453434688L63.075,24.522002717294725L63.8,23.859737526156298L64.525,23.215842514833035L65.25,23.322582608308707L65.97500000000001,23.140085462152353L66.7,23.523664273980323L67.425,23.014198564299942L68.14999999999999,22.708519138548212L68.875,22.525111483117513L69.6,22.90814398920811L70.325,23.38449939011376L71.05,22.930699634062158L71.775,22.658419780435086L72.5,22.495051868260283L73.225,23.383180014791908L73.95,22.929908008874342L74.675,22.657944805324338L75.4,22.987843982518058L76.125,22.69270638951074L76.85000000000001,22.51562383370639L77.575,22.65591019747876L78.30000000000001,22.49354611848726L79.025,22.889204770415652L79.75,22.633522862249396L80.47500000000001,22.480113717349646L81.2,22.38806823040979L81.925,22.825918037569117L82.64999999999999,22.842086719796416L83.375,22.605252031877857L84.1,22.463151219126704L84.82499999999999,22.377890731476047L85.55,22.326734438885616L86.27499999999999,22.296040663331354L87,22.524160295253743L87.725,22.41449617715229L88.45,23.33484660012452L89.175,22.90090796007474L89.9,22.64054477604485L90.625,22.484326865626898L91.35,22.390596119376127L92.075,22.33435767162568L92.8,22.30061460297541L93.525,22.280368761785255L94.25,22.268221257071158L94.97500000000001,22.26093275424268L95.7,22.25655965254561L96.42500000000001,22.253935791527358L97.15,22.252361474916402L97.875,22.251416884949844L98.60000000000001,22.497386028224838L99.325,22.398431616934907L100.05,22.339058970160973L100.77499999999999,22.30343538209657L101.5,22.282061229257952L102.225,22.269236737554756L102.94999999999999,22.5080779397878L103.675,22.40484676387267L104.39999999999999,22.342908058323605L105.125,23.045357831572407L105.85,22.727214698943413L106.575,22.53632881936605L107.3,22.42179729161962L108.025,22.846155474295067L108.75,22.60769328457701L109.475,22.711151868001153L110.2,22.526691120800695L110.925,22.66255056973533L111.65,22.497530341841223L112.375,22.39851820510472L113.10000000000001,22.339110923062837L113.825,23.043079550415968L114.55000000000001,22.72584773024957L115.275,22.782044535404648L116,23.30883971782101L116.72500000000001,22.88530383069261L117.45,22.877718195670493L118.175,22.62663091740232L118.89999999999999,22.72251444769634L119.625,22.780044565872732L120.35,22.568026739523663L121.07499999999999,22.440816043714182L121.8,22.36448962622851L122.52499999999999,22.56522967299204L123.25,22.43913780379525L123.975,22.36348268227716L124.7,22.31808960936628L125.425,22.290853765619755L126.15,22.27451225937186L126.875,22.51124325287805L127.6,22.653281848981756L128.325,22.738505006644022L129.05,22.54310300398642" style="fill: none;" fill="none"></path></g><g><path stroke="rgb(51, 187, 238)" stroke-width="2px" d="M47.85,179.75478329777806L48.575,173.6133579563101L49.300000000000004,167.45652790081505L50.025,166.23498377943537L50.75,161.7936694376981L51.474999999999994,161.60119912929184L52.199999999999996,165.19408030084136L52.925,163.64144082350688L53.65,163.94597706044425L54.375,160.420356821133L55.1,163.2494403892892L55.825,161.23855129816334L56.550000000000004,156.32368481825077L57.275000000000006,150.90254214167499" style="fill: none;" fill="none"></path></g><g><path stroke="rgb(204, 51, 17)" stroke-width="2px" d="M36.25,186.19736632704735L36.975,117.62915546447039L37.7,79.0290716247899L38.425000000000004,57.18443815530664L39.150000000000006,44.705690350903176L39.875,38.12845762471331L40.6,34.89144687425173L41.324999999999996,31.503729369721494L42.05,28.511697834173464L42.775,26.239817405574332L43.5,25.380385446075476L44.225,24.61965241674788L44.95,24.411132104627683L45.675,24.286194352930057L46.4,23.47133347640937L47.125,23.722483934728473L47.85,24.366284125791047L48.575,23.519684494852775L49.300000000000004,24.24453965775515L50.025,23.693239535502073L50.75,23.609018973082193L51.474999999999994,23.805026960318035L52.199999999999996,23.67609225727779L52.925,23.84526915256952L53.65,23.700238178537735L54.375,23.613219858008588L55.1,23.067931356707607L55.825,24.21998551465081L56.550000000000004,23.67852700654151L57.275000000000006,24.58634239777563" style="fill: none;" fill="none"></path></g></g></g></g><g opacity="0.2"><g><g><g><path stroke="rgb(51, 187, 238)" stroke-width="2px" d="M43.5,182.9444414973259L44.225,176.76388962566853L44.95,173.67361037433147L45.675,167.4930585026741L46.4,155.1319414973259L47.125,161.3125L47.85,152.04166887700558L48.575,152.04166887700558L49.300000000000004,142.77083112299442L50.025,148.95138962566853L50.75,148.95138962566853L51.474999999999994,148.95138962566853L52.199999999999996,152.04166887700558L52.925,158.22222074866295L53.65,133.5L54.375,127.3194414973259L55.1,161.3125L55.825,152.04166887700558L56.550000000000004,142.77083112299442L57.275000000000006,148.95138962566853L58,152.04166887700558L58.725,148.95138962566853L59.449999999999996,139.6805585026741L60.175,158.22222074866295L60.9,161.3125L61.625,170.58333112299442L62.35,158.22222074866295L63.075,139.6805585026741L63.8,148.95138962566853L64.525,158.22222074866295L65.25,145.86111037433147L65.97500000000001,161.3125L66.7,164.40277925133705L67.425,155.1319414973259L68.14999999999999,158.22222074866295L68.875,148.95138962566853L69.6,152.04166887700558L70.325,155.1319414973259L71.05,158.22222074866295L71.775,173.67361037433147L72.5,155.1319414973259L73.225,133.5L73.95,148.95138962566853L74.675,148.95138962566853L75.4,155.1319414973259L76.125,148.95138962566853L76.85000000000001,136.59027925133705L77.575,155.1319414973259L78.30000000000001,158.22222074866295L79.025,145.86111037433147L79.75,145.86111037433147L80.47500000000001,148.95138962566853L81.2,161.3125L81.925,139.6805585026741L82.64999999999999,139.6805585026741L83.375,142.77083112299442L84.1,145.86111037433147L84.82499999999999,139.6805585026741L85.55,130.40972074866295L86.27499999999999,142.77083112299442L87,136.59027925133705L87.725,139.6805585026741L88.45,148.95138962566853L89.175,152.04166887700558L89.9,155.1319414973259L90.625,152.04166887700558L91.35,148.95138962566853L92.075,142.77083112299442L92.8,145.86111037433147L93.525,136.59027925133705L94.25,155.1319414973259L94.97500000000001,142.77083112299442L95.7,133.5L96.42500000000001,139.6805585026741L97.15,142.77083112299442L97.875,142.77083112299442L98.60000000000001,145.86111037433147L99.325,133.5L100.05,133.5L100.77499999999999,130.40972074866295L101.5,145.86111037433147L102.225,158.22222074866295L102.94999999999999,142.77083112299442L103.675,139.6805585026741L104.39999999999999,139.6805585026741L105.125,148.95138962566853L105.85,148.95138962566853L106.575,139.6805585026741L107.3,139.6805585026741L108.025,158.22222074866295L108.75,164.40277925133705L109.475,155.1319414973259L110.2,148.95138962566853L110.925,145.86111037433147L111.65,155.1319414973259L112.375,152.04166887700558L113.10000000000001,145.86111037433147L113.825,158.22222074866295L114.55000000000001,139.6805585026741L115.275,142.77083112299442L116,152.04166887700558L116.72500000000001,139.6805585026741L117.45,155.1319414973259L118.175,161.3125L118.89999999999999,148.95138962566853L119.625,148.95138962566853L120.35,148.95138962566853L121.07499999999999,142.77083112299442L121.8,130.40972074866295L122.52499999999999,133.5L123.25,145.86111037433147L123.975,155.1319414973259L124.7,139.6805585026741L125.425,136.59027925133705L126.15,139.6805585026741L126.875,139.6805585026741L127.6,155.1319414973259L128.325,130.40972074866295L129.05,130.40972074866295L129.775,133.5L130.5,127.3194414973259L131.225,142.77083112299442L131.95000000000002,142.77083112299442L132.675,142.77083112299442L133.4,142.77083112299442L134.125,139.6805585026741L134.85,130.40972074866295L135.57500000000002,145.86111037433147L136.29999999999998,145.86111037433147L137.025,158.22222074866295L137.75,145.86111037433147L138.475,145.86111037433147L139.2,142.77083112299442L139.92499999999998,139.6805585026741L140.65,139.6805585026741L141.375,142.77083112299442L142.1,142.77083112299442L142.825,142.77083112299442L143.55,142.77083112299442L144.275,136.59027925133705L145,136.59027925133705L145.725,142.77083112299442L146.45,139.6805585026741L147.17499999999998,136.59027925133705L147.9,136.59027925133705L148.625,136.59027925133705L149.35,127.3194414973259L150.075,133.5L150.8,139.6805585026741L151.52499999999998,142.77083112299442L152.25,139.6805585026741L152.975,136.59027925133705L153.70000000000002,133.5L154.42499999999998,136.59027925133705L155.15,136.59027925133705L155.875,127.3194414973259L156.60000000000002,130.40972074866295L157.325,130.40972074866295L158.05,133.5L158.775,133.5L159.5,136.59027925133705L160.225,127.3194414973259L160.95000000000002,136.59027925133705L161.675,133.5L162.4,142.77083112299442L163.125,142.77083112299442L163.85,142.77083112299442L164.575,142.77083112299442L165.29999999999998,152.04166887700558L166.025,152.04166887700558L166.75,148.95138962566853L167.475,148.95138962566853L168.2,148.95138962566853L168.925,155.1319414973259L169.64999999999998,161.3125L170.375,148.95138962566853L171.1,148.95138962566853L171.82500000000002,142.77083112299442L172.54999999999998,139.6805585026741L173.275,136.59027925133705L174,139.6805585026741L174.72500000000002,136.59027925133705L175.45,130.40972074866295L176.175,148.95138962566853L176.9,130.40972074866295L177.625,124.22916224598885L178.35,133.5L179.07500000000002,139.6805585026741L179.8,152.04166887700558L180.525,155.1319414973259L181.25,136.59027925133705L181.975,139.6805585026741L182.7,136.59027925133705L183.42499999999998,136.59027925133705L184.15,145.86111037433147L184.875,139.6805585026741L185.6,148.95138962566853L186.325,158.22222074866295L187.05,145.86111037433147L187.77499999999998,145.86111037433147L188.5,142.77083112299442L189.225,139.6805585026741L189.95000000000002,152.04166887700558L190.67499999999998,130.40972074866295L191.4,136.59027925133705L192.125,139.6805585026741L192.85000000000002,142.77083112299442L193.575,142.77083112299442L194.3,142.77083112299442L195.025,133.5L195.75,136.59027925133705L196.475,133.5L197.20000000000002,130.40972074866295L197.925,130.40972074866295L198.65,130.40972074866295L199.375,127.3194414973259L200.1,142.77083112299442L200.825,142.77083112299442L201.54999999999998,142.77083112299442L202.275,148.95138962566853L203,139.6805585026741L203.725,139.6805585026741L204.45,133.5L205.175,136.59027925133705L205.89999999999998,155.1319414973259L206.625,158.22222074866295L207.35,148.95138962566853L208.07500000000002,142.77083112299442L208.79999999999998,142.77083112299442L209.525,148.95138962566853L210.25,139.6805585026741L210.97500000000002,139.6805585026741L211.7,139.6805585026741L212.425,139.6805585026741L213.15,136.59027925133705L213.875,133.5L214.6,136.59027925133705L215.32500000000002,139.6805585026741L216.05,139.6805585026741L216.775,139.6805585026741L217.5,139.6805585026741L218.225,130.40972074866295L218.95,130.40972074866295L219.67499999999998,127.3194414973259L220.4,136.59027925133705L221.125,142.77083112299442L221.85,130.40972074866295L222.575,136.59027925133705L223.3,130.40972074866295L224.02499999999998,130.40972074866295L224.75,133.5L225.475,136.59027925133705L226.20000000000002,136.59027925133705L226.92499999999998,145.86111037433147L227.65,145.86111037433147L228.375,136.59027925133705L229.10000000000002,136.59027925133705L229.825,139.6805585026741L230.55,136.59027925133705L231.275,136.59027925133705L232,136.59027925133705L232.725,133.5L233.45000000000002,130.40972074866295L234.175,133.5L234.9,136.59027925133705L235.625,130.40972074866295L236.35,130.40972074866295L237.075,133.5L237.79999999999998,136.59027925133705L238.525,136.59027925133705L239.25,142.77083112299442L239.975,130.40972074866295L240.7,139.6805585026741L241.425,142.77083112299442L242.14999999999998,133.5L242.875,136.59027925133705L243.6,139.6805585026741L244.32500000000002,139.6805585026741L245.04999999999998,148.95138962566853L245.775,148.95138962566853L246.5,142.77083112299442L247.22500000000002,142.77083112299442L247.95,142.77083112299442L248.675,139.6805585026741L249.4,130.40972074866295L250.125,139.6805585026741L250.85,139.6805585026741L251.57500000000002,139.6805585026741L252.3,142.77083112299442L253.025,142.77083112299442" style="fill: none;" fill="none"></path></g><g><path stroke="rgb(204, 51, 17)" stroke-width="2px" d="M36.25,184.9646802097559L36.975,83.26800590753555L37.7,51.218140333890936L38.425000000000004,34.57687443494799L39.150000000000006,31.495149195194266L39.875,33.96052142977717L40.6,25.331711977720282L41.324999999999996,27.180744469165823L42.05,24.099032491445563L42.775,22.86633974313738L43.5,22.86633974313738L44.225,25.331711977720282L44.95,23.482692748308203L45.675,23.482692748308203L46.4,25.948064982891104L47.125,24.715372234582922L47.85,24.715372234582922L48.575,27.180744469165823L49.300000000000004,22.25000000000002L50.025,24.099032491445563L50.75,27.797097474336645L51.474999999999994,25.948064982891104L52.199999999999996,28.413437217474005L52.925,26.564404726028464L53.65,30.878809452056906L54.375,25.331711977720282L55.1,30.878809452056906L55.825,25.331711977720282L56.550000000000004,29.029776960611365L57.275000000000006,29.646116703748724L58,32.11150220036509L58.725,25.948064982891104L59.449999999999996,30.262469708919546L60.175,27.180744469165823L60.9,30.878809452056906L61.625,27.797097474336645L62.35,30.878809452056906L63.075,32.72784194350245L63.8,30.262469708919546L64.525,25.948064982891104L65.25,25.331711977720282L65.97500000000001,27.797097474336645L66.7,30.878809452056906L67.425,27.180744469165823L68.14999999999999,24.099032491445563L68.875,25.331711977720282L69.6,28.413437217474005L70.325,26.564404726028464L71.05,24.715372234582922L71.775,25.331711977720282L72.5,25.331711977720282L73.225,26.564404726028464L73.95,28.413437217474005L74.675,24.715372234582922L75.4,26.564404726028464L76.125,24.099032491445563L76.85000000000001,30.262469708919546L77.575,26.564404726028464L78.30000000000001,25.948064982891104L79.025,27.797097474336645L79.75,25.948064982891104L80.47500000000001,27.180744469165823L81.2,25.948064982891104L81.925,25.331711977720282L82.64999999999999,25.948064982891104L83.375,26.564404726028464L84.1,25.948064982891104L84.82499999999999,26.564404726028464L85.55,24.715372234582922L86.27499999999999,25.331711977720282L87,22.86633974313738L87.725,23.482692748308203L88.45,23.482692748308203L89.175,25.948064982891104L89.9,25.331711977720282L90.625,24.099032491445563L91.35,28.413437217474005L92.075,25.331711977720282L92.8,24.715372234582922L93.525,28.413437217474005L94.25,25.948064982891104L94.97500000000001,27.180744469165823L95.7,25.331711977720282L96.42500000000001,23.482692748308203L97.15,25.331711977720282L97.875,26.564404726028464L98.60000000000001,24.099032491445563L99.325,25.331711977720282L100.05,25.948064982891104L100.77499999999999,23.482692748308203L101.5,24.715372234582922L102.225,24.099032491445563L102.94999999999999,25.948064982891104L103.675,24.715372234582922L104.39999999999999,24.715372234582922L105.125,25.948064982891104L105.85,30.262469708919546L106.575,25.948064982891104L107.3,26.564404726028464L108.025,29.646116703748724L108.75,28.413437217474005L109.475,25.948064982891104L110.2,24.715372234582922L110.925,24.099032491445563L111.65,26.564404726028464L112.375,25.331711977720282L113.10000000000001,26.564404726028464L113.825,30.878809452056906L114.55000000000001,25.948064982891104L115.275,25.331711977720282L116,25.331711977720282L116.72500000000001,24.099032491445563L117.45,27.797097474336645L118.175,25.948064982891104L118.89999999999999,26.564404726028464L119.625,25.331711977720282L120.35,28.413437217474005L121.07499999999999,24.715372234582922L121.8,24.715372234582922L122.52499999999999,25.331711977720282L123.25,27.797097474336645L123.975,25.331711977720282L124.7,26.564404726028464L125.425,25.331711977720282L126.15,25.948064982891104L126.875,25.948064982891104L127.6,25.331711977720282L128.325,27.797097474336645L129.05,24.099032491445563L129.775,23.482692748308203L130.5,25.948064982891104L131.225,27.180744469165823L131.95000000000002,24.099032491445563L132.675,23.482692748308203L133.4,25.948064982891104L134.125,22.86633974313738L134.85,24.099032491445563L135.57500000000002,23.482692748308203L136.29999999999998,24.099032491445563L137.025,26.564404726028464L137.75,26.564404726028464L138.475,24.099032491445563L139.2,24.715372234582922L139.92499999999998,25.948064982891104L140.65,26.564404726028464L141.375,28.413437217474005L142.1,27.180744469165823L142.825,27.180744469165823L143.55,25.948064982891104L144.275,24.099032491445563L145,23.482692748308203L145.725,22.86633974313738L146.45,24.099032491445563L147.17499999999998,24.099032491445563L147.9,23.482692748308203L148.625,23.482692748308203L149.35,22.25000000000002L150.075,26.564404726028464L150.8,23.482692748308203L151.52499999999998,27.180744469165823L152.25,25.331711977720282L152.975,25.948064982891104L153.70000000000002,26.564404726028464L154.42499999999998,25.331711977720282L155.15,22.86633974313738L155.875,25.331711977720282L156.60000000000002,24.099032491445563L157.325,24.715372234582922L158.05,23.482692748308203L158.775,23.482692748308203L159.5,25.948064982891104L160.225,22.86633974313738L160.95000000000002,26.564404726028464L161.675,24.099032491445563L162.4,25.331711977720282L163.125,24.715372234582922L163.85,23.482692748308203L164.575,22.86633974313738L165.29999999999998,23.482692748308203L166.025,22.86633974313738L166.75,22.25000000000002L167.475,24.099032491445563L168.2,25.331711977720282L168.925,24.099032491445563L169.64999999999998,24.715372234582922L170.375,23.482692748308203L171.1,22.86633974313738L171.82500000000002,24.715372234582922L172.54999999999998,23.482692748308203L173.275,27.797097474336645L174,25.331711977720282L174.72500000000002,24.099032491445563L175.45,25.948064982891104L176.175,26.564404726028464L176.9,27.180744469165823L177.625,23.482692748308203L178.35,23.482692748308203L179.07500000000002,23.482692748308203L179.8,22.25000000000002L180.525,25.331711977720282L181.25,23.482692748308203L181.975,24.715372234582922L182.7,23.482692748308203L183.42499999999998,25.331711977720282L184.15,22.25000000000002L184.875,24.099032491445563L185.6,24.099032491445563L186.325,24.715372234582922L187.05,26.564404726028464L187.77499999999998,25.948064982891104L188.5,26.564404726028464L189.225,27.180744469165823L189.95000000000002,27.797097474336645L190.67499999999998,25.331711977720282L191.4,27.180744469165823L192.125,28.413437217474005L192.85000000000002,29.029776960611365L193.575,24.715372234582922L194.3,25.331711977720282L195.025,24.099032491445563L195.75,26.564404726028464L196.475,24.099032491445563L197.20000000000002,24.715372234582922L197.925,25.331711977720282L198.65,23.482692748308203L199.375,25.331711977720282L200.1,24.715372234582922L200.825,24.099032491445563L201.54999999999998,23.482692748308203L202.275,24.099032491445563L203,22.86633974313738L203.725,23.482692748308203L204.45,25.331711977720282L205.175,24.099032491445563L205.89999999999998,24.715372234582922L206.625,22.86633974313738L207.35,24.099032491445563L208.07500000000002,22.25000000000002L208.79999999999998,24.099032491445563L209.525,25.331711977720282L210.25,23.482692748308203L210.97500000000002,22.86633974313738L211.7,24.099032491445563L212.425,24.099032491445563L213.15,22.86633974313738L213.875,24.099032491445563L214.6,23.482692748308203L215.32500000000002,25.948064982891104L216.05,22.86633974313738L216.775,24.715372234582922L217.5,22.86633974313738L218.225,24.715372234582922L218.95,23.482692748308203L219.67499999999998,25.948064982891104L220.4,23.482692748308203L221.125,24.715372234582922L221.85,26.564404726028464L222.575,25.948064982891104L223.3,24.099032491445563L224.02499999999998,22.86633974313738L224.75,24.715372234582922L225.475,22.86633974313738L226.20000000000002,22.86633974313738L226.92499999999998,22.86633974313738L227.65,23.482692748308203L228.375,23.482692748308203L229.10000000000002,24.715372234582922L229.825,24.715372234582922L230.55,24.715372234582922L231.275,25.331711977720282L232,25.331711977720282L232.725,23.482692748308203L233.45000000000002,26.564404726028464L234.175,23.482692748308203L234.9,27.180744469165823L235.625,24.099032491445563L236.35,24.715372234582922L237.075,25.948064982891104L237.79999999999998,22.25000000000002L238.525,25.948064982891104L239.25,24.715372234582922L239.975,29.029776960611365L240.7,22.86633974313738L241.425,22.86633974313738L242.14999999999998,22.25000000000002L242.875,22.86633974313738L243.6,22.86633974313738L244.32500000000002,24.099032491445563L245.04999999999998,23.482692748308203L245.775,23.482692748308203L246.5,23.482692748308203L247.22500000000002,22.25000000000002L247.95,22.25000000000002L248.675,24.715372234582922L249.4,24.715372234582922L250.125,27.180744469165823L250.85,24.099032491445563L251.57500000000002,25.948064982891104L252.3,27.180744469165823L253.025,25.331711977720282" style="fill: none;" fill="none"></path></g><g><path stroke="rgb(0, 119, 187)" stroke-width="2px" d="M36.25,142.77083112299442L36.975,133.5L37.7,139.6805585026741L38.425000000000004,136.59027925133705L39.150000000000006,148.95138962566853L39.875,152.04166887700558L40.6,142.77083112299442L41.324999999999996,158.22222074866295L42.05,142.77083112299442L42.775,136.59027925133705L43.5,136.59027925133705L44.225,142.77083112299442L44.95,142.77083112299442L45.675,145.86111037433147L46.4,139.6805585026741L47.125,152.04166887700558L47.85,142.77083112299442L48.575,148.95138962566853L49.300000000000004,136.59027925133705L50.025,142.77083112299442L50.75,142.77083112299442L51.474999999999994,145.86111037433147L52.199999999999996,139.6805585026741L52.925,139.6805585026741L53.65,136.59027925133705L54.375,136.59027925133705L55.1,139.6805585026741L55.825,139.6805585026741L56.550000000000004,152.04166887700558L57.275000000000006,148.95138962566853L58,152.04166887700558L58.725,145.86111037433147L59.449999999999996,139.6805585026741L60.175,145.86111037433147L60.9,139.6805585026741L61.625,133.5L62.35,133.5L63.075,139.6805585026741L63.8,136.59027925133705L64.525,152.04166887700558L65.25,148.95138962566853L65.97500000000001,145.86111037433147L66.7,142.77083112299442L67.425,130.40972074866295L68.14999999999999,136.59027925133705L68.875,130.40972074866295L69.6,133.5L70.325,130.40972074866295L71.05,136.59027925133705L71.775,145.86111037433147L72.5,136.59027925133705L73.225,139.6805585026741L73.95,127.3194414973259L74.675,142.77083112299442L75.4,136.59027925133705L76.125,139.6805585026741L76.85000000000001,136.59027925133705L77.575,139.6805585026741L78.30000000000001,136.59027925133705L79.025,139.6805585026741L79.75,133.5L80.47500000000001,130.40972074866295L81.2,121.1388829946518L81.925,136.59027925133705L82.64999999999999,139.6805585026741L83.375,142.77083112299442L84.1,136.59027925133705L84.82499999999999,133.5L85.55,139.6805585026741L86.27499999999999,136.59027925133705L87,130.40972074866295L87.725,136.59027925133705L88.45,136.59027925133705L89.175,130.40972074866295L89.9,127.3194414973259L90.625,139.6805585026741L91.35,139.6805585026741L92.075,133.5L92.8,133.5L93.525,136.59027925133705L94.25,139.6805585026741L94.97500000000001,142.77083112299442L95.7,136.59027925133705L96.42500000000001,155.1319414973259L97.15,136.59027925133705L97.875,136.59027925133705L98.60000000000001,133.5L99.325,136.59027925133705L100.05,136.59027925133705L100.77499999999999,133.5L101.5,139.6805585026741L102.225,136.59027925133705L102.94999999999999,133.5L103.675,142.77083112299442L104.39999999999999,130.40972074866295L105.125,142.77083112299442L105.85,142.77083112299442L106.575,136.59027925133705L107.3,133.5L108.025,136.59027925133705L108.75,145.86111037433147L109.475,145.86111037433147L110.2,136.59027925133705L110.925,136.59027925133705L111.65,130.40972074866295L112.375,139.6805585026741L113.10000000000001,139.6805585026741L113.825,139.6805585026741L114.55000000000001,133.5L115.275,139.6805585026741L116,142.77083112299442L116.72500000000001,142.77083112299442L117.45,142.77083112299442L118.175,136.59027925133705L118.89999999999999,136.59027925133705L119.625,133.5L120.35,142.77083112299442L121.07499999999999,136.59027925133705L121.8,133.5L122.52499999999999,142.77083112299442L123.25,145.86111037433147L123.975,155.1319414973259L124.7,155.1319414973259L125.425,136.59027925133705L126.15,145.86111037433147L126.875,136.59027925133705L127.6,139.6805585026741L128.325,139.6805585026741L129.05,139.6805585026741L129.775,148.95138962566853L130.5,142.77083112299442L131.225,139.6805585026741L131.95000000000002,136.59027925133705L132.675,152.04166887700558L133.4,136.59027925133705L134.125,142.77083112299442L134.85,142.77083112299442L135.57500000000002,139.6805585026741L136.29999999999998,136.59027925133705L137.025,142.77083112299442L137.75,130.40972074866295L138.475,133.5L139.2,130.40972074866295L139.92499999999998,133.5L140.65,127.3194414973259L141.375,142.77083112299442L142.1,139.6805585026741L142.825,145.86111037433147L143.55,139.6805585026741L144.275,133.5L145,130.40972074866295L145.725,130.40972074866295L146.45,142.77083112299442L147.17499999999998,136.59027925133705L147.9,136.59027925133705L148.625,133.5L149.35,139.6805585026741L150.075,127.3194414973259L150.8,130.40972074866295L151.52499999999998,130.40972074866295L152.25,133.5L152.975,136.59027925133705L153.70000000000002,136.59027925133705L154.42499999999998,136.59027925133705L155.15,145.86111037433147L155.875,136.59027925133705L156.60000000000002,136.59027925133705L157.325,142.77083112299442L158.05,142.77083112299442L158.775,148.95138962566853L159.5,145.86111037433147L160.225,139.6805585026741L160.95000000000002,145.86111037433147" style="fill: none;" fill="none"></path></g><g><path stroke="rgb(255, 112, 67)" stroke-width="2px" d="M36.25,22.86633974313738L36.975,22.25000000000002L37.7,22.25000000000002L38.425000000000004,22.86633974313738L39.150000000000006,22.25000000000002L39.875,22.25000000000002L40.6,22.86633974313738L41.324999999999996,22.86633974313738L42.05,22.25000000000002L42.775,22.25000000000002L43.5,22.25000000000002L44.225,22.25000000000002L44.95,22.25000000000002L45.675,22.25000000000002L46.4,23.482692748308203L47.125,22.25000000000002L47.85,22.25000000000002L48.575,22.25000000000002L49.300000000000004,24.099032491445563L50.025,22.25000000000002L50.75,23.482692748308203L51.474999999999994,25.948064982891104L52.199999999999996,22.86633974313738L52.925,22.86633974313738L53.65,22.25000000000002L54.375,22.25000000000002L55.1,22.25000000000002L55.825,22.25000000000002L56.550000000000004,22.25000000000002L57.275000000000006,22.25000000000002L58,22.25000000000002L58.725,22.25000000000002L59.449999999999996,22.25000000000002L60.175,22.25000000000002L60.9,22.25000000000002L61.625,22.86633974313738L62.35,22.25000000000002L63.075,24.099032491445563L63.8,22.86633974313738L64.525,23.482692748308203L65.25,22.25000000000002L65.97500000000001,22.25000000000002L66.7,22.25000000000002L67.425,22.25000000000002L68.14999999999999,22.25000000000002L68.875,22.25000000000002L69.6,22.86633974313738L70.325,22.86633974313738L71.05,22.25000000000002L71.775,23.482692748308203L72.5,22.86633974313738L73.225,22.25000000000002L73.95,23.482692748308203L74.675,22.25000000000002L75.4,22.25000000000002L76.125,22.25000000000002L76.85000000000001,22.86633974313738L77.575,22.25000000000002L78.30000000000001,22.86633974313738L79.025,22.86633974313738L79.75,22.25000000000002L80.47500000000001,22.25000000000002L81.2,22.25000000000002L81.925,22.25000000000002L82.64999999999999,22.25000000000002L83.375,22.86633974313738L84.1,22.25000000000002L84.82499999999999,23.482692748308203L85.55,23.482692748308203L86.27499999999999,22.25000000000002L87,22.86633974313738L87.725,22.25000000000002L88.45,22.25000000000002L89.175,22.25000000000002L89.9,22.86633974313738L90.625,22.25000000000002L91.35,22.25000000000002L92.075,24.099032491445563L92.8,22.25000000000002L93.525,22.25000000000002L94.25,22.25000000000002L94.97500000000001,23.482692748308203L95.7,22.25000000000002L96.42500000000001,22.25000000000002L97.15,22.86633974313738L97.875,22.25000000000002L98.60000000000001,23.482692748308203L99.325,22.25000000000002L100.05,22.86633974313738L100.77499999999999,22.25000000000002L101.5,22.25000000000002L102.225,22.25000000000002L102.94999999999999,22.25000000000002L103.675,22.86633974313738L104.39999999999999,22.25000000000002L105.125,22.25000000000002L105.85,22.25000000000002L106.575,22.86633974313738L107.3,22.86633974313738L108.025,22.86633974313738L108.75,22.86633974313738L109.475,22.25000000000002L110.2,22.86633974313738L110.925,22.25000000000002L111.65,22.25000000000002L112.375,22.25000000000002L113.10000000000001,22.25000000000002L113.825,22.86633974313738L114.55000000000001,22.86633974313738L115.275,22.25000000000002L116,22.25000000000002L116.72500000000001,24.099032491445563L117.45,22.86633974313738L118.175,23.482692748308203L118.89999999999999,22.86633974313738L119.625,22.25000000000002L120.35,22.86633974313738L121.07499999999999,22.25000000000002L121.8,22.86633974313738L122.52499999999999,22.86633974313738L123.25,22.86633974313738L123.975,22.25000000000002L124.7,22.86633974313738L125.425,22.86633974313738L126.15,22.25000000000002L126.875,22.86633974313738L127.6,22.25000000000002L128.325,22.86633974313738L129.05,22.25000000000002L129.775,22.86633974313738L130.5,22.25000000000002L131.225,22.25000000000002L131.95000000000002,22.25000000000002L132.675,22.25000000000002L133.4,22.25000000000002L134.125,23.482692748308203L134.85,22.25000000000002L135.57500000000002,24.715372234582922L136.29999999999998,22.25000000000002L137.025,22.25000000000002L137.75,22.25000000000002L138.475,22.25000000000002L139.2,22.25000000000002L139.92499999999998,22.25000000000002L140.65,22.25000000000002L141.375,22.25000000000002L142.1,23.482692748308203L142.825,22.86633974313738L143.55,22.25000000000002L144.275,22.25000000000002L145,22.86633974313738L145.725,23.482692748308203L146.45,22.25000000000002L147.17499999999998,22.25000000000002L147.9,23.482692748308203L148.625,22.25000000000002L149.35,23.482692748308203L150.075,22.25000000000002L150.8,22.25000000000002L151.52499999999998,22.86633974313738L152.25,23.482692748308203L152.975,22.25000000000002L153.70000000000002,22.25000000000002L154.42499999999998,22.25000000000002L155.15,22.25000000000002L155.875,22.25000000000002L156.60000000000002,22.25000000000002L157.325,22.86633974313738L158.05,22.25000000000002L158.775,22.25000000000002L159.5,22.86633974313738L160.225,24.099032491445563L160.95000000000002,22.25000000000002" style="fill: none;" fill="none"></path></g><g><path stroke="rgb(187, 187, 187)" stroke-width="2px" d="M43.5,179.85416887700558L44.225,170.58333112299442L44.95,167.4930585026741L45.675,179.85416887700558L46.4,158.22222074866295L47.125,164.40277925133705L47.85,167.4930585026741L48.575,164.40277925133705L49.300000000000004,161.3125L50.025,155.1319414973259L50.75,155.1319414973259L51.474999999999994,152.04166887700558L52.199999999999996,152.04166887700558L52.925,155.1319414973259L53.65,152.04166887700558L54.375,148.95138962566853L55.1,161.3125L55.825,148.95138962566853L56.550000000000004,161.3125L57.275000000000006,152.04166887700558L58,155.1319414973259L58.725,148.95138962566853L59.449999999999996,142.77083112299442L60.175,158.22222074866295L60.9,145.86111037433147L61.625,155.1319414973259L62.35,152.04166887700558L63.075,152.04166887700558L63.8,148.95138962566853L64.525,148.95138962566853L65.25,148.95138962566853L65.97500000000001,158.22222074866295L66.7,155.1319414973259L67.425,155.1319414973259L68.14999999999999,148.95138962566853L68.875,142.77083112299442L69.6,158.22222074866295L70.325,142.77083112299442L71.05,145.86111037433147L71.775,139.6805585026741L72.5,136.59027925133705L73.225,152.04166887700558L73.95,142.77083112299442L74.675,148.95138962566853L75.4,142.77083112299442L76.125,139.6805585026741L76.85000000000001,142.77083112299442L77.575,148.95138962566853L78.30000000000001,136.59027925133705L79.025,145.86111037433147L79.75,139.6805585026741L80.47500000000001,148.95138962566853L81.2,145.86111037433147L81.925,145.86111037433147L82.64999999999999,142.77083112299442L83.375,152.04166887700558L84.1,142.77083112299442L84.82499999999999,142.77083112299442L85.55,139.6805585026741L86.27499999999999,148.95138962566853L87,142.77083112299442L87.725,152.04166887700558L88.45,142.77083112299442L89.175,145.86111037433147L89.9,145.86111037433147L90.625,148.95138962566853L91.35,145.86111037433147L92.075,148.95138962566853L92.8,145.86111037433147L93.525,142.77083112299442L94.25,148.95138962566853L94.97500000000001,139.6805585026741L95.7,133.5L96.42500000000001,139.6805585026741L97.15,133.5L97.875,145.86111037433147L98.60000000000001,139.6805585026741L99.325,127.3194414973259L100.05,142.77083112299442L100.77499999999999,133.5L101.5,133.5L102.225,130.40972074866295L102.94999999999999,148.95138962566853L103.675,139.6805585026741L104.39999999999999,145.86111037433147L105.125,152.04166887700558L105.85,136.59027925133705L106.575,139.6805585026741L107.3,142.77083112299442L108.025,142.77083112299442L108.75,139.6805585026741L109.475,139.6805585026741L110.2,136.59027925133705L110.925,142.77083112299442L111.65,145.86111037433147L112.375,145.86111037433147L113.10000000000001,145.86111037433147L113.825,155.1319414973259L114.55000000000001,155.1319414973259L115.275,152.04166887700558L116,152.04166887700558L116.72500000000001,148.95138962566853L117.45,148.95138962566853L118.175,136.59027925133705L118.89999999999999,145.86111037433147L119.625,152.04166887700558L120.35,139.6805585026741L121.07499999999999,152.04166887700558L121.8,133.5L122.52499999999999,133.5L123.25,136.59027925133705L123.975,136.59027925133705L124.7,136.59027925133705L125.425,133.5L126.15,145.86111037433147L126.875,139.6805585026741L127.6,139.6805585026741L128.325,139.6805585026741L129.05,145.86111037433147" style="fill: none;" fill="none"></path></g><g><path stroke="rgb(0, 153, 136)" stroke-width="2px" d="M36.25,183.73199409246445L36.975,84.50069865584373L37.7,51.218140333890936L38.425000000000004,31.495149195194266L39.150000000000006,31.495149195194266L39.875,26.564404726028464L40.6,25.331711977720282L41.324999999999996,23.482692748308203L42.05,24.715372234582922L42.775,23.482692748308203L43.5,24.715372234582922L44.225,24.099032491445563L44.95,22.25000000000002L45.675,25.331711977720282L46.4,25.331711977720282L47.125,22.25000000000002L47.85,24.099032491445563L48.575,22.86633974313738L49.300000000000004,22.25000000000002L50.025,22.25000000000002L50.75,22.25000000000002L51.474999999999994,22.25000000000002L52.199999999999996,23.482692748308203L52.925,22.25000000000002L53.65,22.86633974313738L54.375,24.099032491445563L55.1,24.715372234582922L55.825,24.715372234582922L56.550000000000004,24.099032491445563L57.275000000000006,24.099032491445563L58,22.25000000000002L58.725,22.25000000000002L59.449999999999996,22.86633974313738L60.175,25.948064982891104L60.9,23.482692748308203L61.625,22.25000000000002L62.35,24.099032491445563L63.075,25.948064982891104L63.8,22.86633974313738L64.525,22.25000000000002L65.25,23.482692748308203L65.97500000000001,22.86633974313738L66.7,24.099032491445563L67.425,22.25000000000002L68.14999999999999,22.25000000000002L68.875,22.25000000000002L69.6,23.482692748308203L70.325,24.099032491445563L71.05,22.25000000000002L71.775,22.25000000000002L72.5,22.25000000000002L73.225,24.715372234582922L73.95,22.25000000000002L74.675,22.25000000000002L75.4,23.482692748308203L76.125,22.25000000000002L76.85000000000001,22.25000000000002L77.575,22.86633974313738L78.30000000000001,22.25000000000002L79.025,23.482692748308203L79.75,22.25000000000002L80.47500000000001,22.25000000000002L81.2,22.25000000000002L81.925,23.482692748308203L82.64999999999999,22.86633974313738L83.375,22.25000000000002L84.1,22.25000000000002L84.82499999999999,22.25000000000002L85.55,22.25000000000002L86.27499999999999,22.25000000000002L87,22.86633974313738L87.725,22.25000000000002L88.45,24.715372234582922L89.175,22.25000000000002L89.9,22.25000000000002L90.625,22.25000000000002L91.35,22.25000000000002L92.075,22.25000000000002L92.8,22.25000000000002L93.525,22.25000000000002L94.25,22.25000000000002L94.97500000000001,22.25000000000002L95.7,22.25000000000002L96.42500000000001,22.25000000000002L97.15,22.25000000000002L97.875,22.25000000000002L98.60000000000001,22.86633974313738L99.325,22.25000000000002L100.05,22.25000000000002L100.77499999999999,22.25000000000002L101.5,22.25000000000002L102.225,22.25000000000002L102.94999999999999,22.86633974313738L103.675,22.25000000000002L104.39999999999999,22.25000000000002L105.125,24.099032491445563L105.85,22.25000000000002L106.575,22.25000000000002L107.3,22.25000000000002L108.025,23.482692748308203L108.75,22.25000000000002L109.475,22.86633974313738L110.2,22.25000000000002L110.925,22.86633974313738L111.65,22.25000000000002L112.375,22.25000000000002L113.10000000000001,22.25000000000002L113.825,24.099032491445563L114.55000000000001,22.25000000000002L115.275,22.86633974313738L116,24.099032491445563L116.72500000000001,22.25000000000002L117.45,22.86633974313738L118.175,22.25000000000002L118.89999999999999,22.86633974313738L119.625,22.86633974313738L120.35,22.25000000000002L121.07499999999999,22.25000000000002L121.8,22.25000000000002L122.52499999999999,22.86633974313738L123.25,22.25000000000002L123.975,22.25000000000002L124.7,22.25000000000002L125.425,22.25000000000002L126.15,22.25000000000002L126.875,22.86633974313738L127.6,22.86633974313738L128.325,22.86633974313738L129.05,22.25000000000002" style="fill: none;" fill="none"></path></g><g><path stroke="rgb(51, 187, 238)" stroke-width="2px" d="M46.4,186.03472074866295L47.125,167.4930585026741L47.85,176.76388962566853L48.575,164.40277925133705L49.300000000000004,158.22222074866295L50.025,164.40277925133705L50.75,155.1319414973259L51.474999999999994,161.3125L52.199999999999996,170.58333112299442L52.925,161.3125L53.65,164.40277925133705L54.375,155.1319414973259L55.1,167.4930585026741L55.825,158.22222074866295L56.550000000000004,148.95138962566853L57.275000000000006,142.77083112299442" style="fill: none;" fill="none"></path></g><g><path stroke="rgb(204, 51, 17)" stroke-width="2px" d="M36.25,186.19736632704735L36.975,76.48822894692421L37.7,41.97299113869669L38.425000000000004,31.495149195194266L39.150000000000006,28.413437217474005L39.875,29.029776960611365L40.6,30.262469708919546L41.324999999999996,26.564404726028464L42.05,24.099032491445563L42.775,22.86633974313738L43.5,24.099032491445563L44.225,23.482692748308203L44.95,24.099032491445563L45.675,24.099032491445563L46.4,22.25000000000002L47.125,24.099032491445563L47.85,25.331711977720282L48.575,22.25000000000002L49.300000000000004,25.331711977720282L50.025,22.86633974313738L50.75,23.482692748308203L51.474999999999994,24.099032491445563L52.199999999999996,23.482692748308203L52.925,24.099032491445563L53.65,23.482692748308203L54.375,23.482692748308203L55.1,22.25000000000002L55.825,25.948064982891104L56.550000000000004,22.86633974313738L57.275000000000006,25.948064982891104" style="fill: none;" fill="none"></path></g></g></g></g></g></g><g transform="translate(40, 178)" clip-path="url(#clip_1)"><clipPath id="clip_1"><rect width="290" height="22"></rect></clipPath><g><g><line x1="0" y1="0" x2="0" y2="5" style="visibility: inherit;" fill="rgb(0, 0, 0)" stroke="rgb(204, 204, 204)" stroke-width="1px"></line><line x1="36.25" y1="0" x2="36.25" y2="5" style="visibility: inherit;" fill="rgb(0, 0, 0)" stroke="rgb(204, 204, 204)" stroke-width="1px"></line><line x1="72.5" y1="0" x2="72.5" y2="5" style="visibility: inherit;" fill="rgb(0, 0, 0)" stroke="rgb(204, 204, 204)" stroke-width="1px"></line><line x1="108.75" y1="0" x2="108.75" y2="5" style="visibility: inherit;" fill="rgb(0, 0, 0)" stroke="rgb(204, 204, 204)" stroke-width="1px"></line><line x1="145" y1="0" x2="145" y2="5" style="visibility: inherit;" fill="rgb(0, 0, 0)" stroke="rgb(204, 204, 204)" stroke-width="1px"></line><line x1="181.25" y1="0" x2="181.25" y2="5" style="visibility: inherit;" fill="rgb(0, 0, 0)" stroke="rgb(204, 204, 204)" stroke-width="1px"></line><line x1="217.5" y1="0" x2="217.5" y2="5" style="visibility: inherit;" fill="rgb(0, 0, 0)" stroke="rgb(204, 204, 204)" stroke-width="1px"></line><line x1="253.75" y1="0" x2="253.75" y2="5" style="visibility: inherit;" fill="rgb(0, 0, 0)" stroke="rgb(204, 204, 204)" stroke-width="1px"></line><line x1="290" y1="0" x2="290" y2="5" style="visibility: inherit;" fill="rgb(0, 0, 0)" stroke="rgb(204, 204, 204)" stroke-width="1px"></line></g><g transform="translate(0, 8)"><text x="0" y="0" dx="0em" dy="0.95em" style="text-anchor: middle; visibility: hidden; font-family: Roboto, sans-serif; font-size: 12px; font-weight: 200;" fill="rgb(50, 49, 63)" stroke="none" stroke-width="1px">-50</text><text x="36.25" y="0" dx="0em" dy="0.95em" style="text-anchor: middle; visibility: inherit; font-family: Roboto, sans-serif; font-size: 12px; font-weight: 200;" fill="rgb(50, 49, 63)" stroke="none" stroke-width="1px">0</text><text x="72.5" y="0" dx="0em" dy="0.95em" style="text-anchor: middle; visibility: inherit; font-family: Roboto, sans-serif; font-size: 12px; font-weight: 200;" fill="rgb(50, 49, 63)" stroke="none" stroke-width="1px">50</text><text x="108.75" y="0" dx="0em" dy="0.95em" style="text-anchor: middle; visibility: inherit; font-family: Roboto, sans-serif; font-size: 12px; font-weight: 200;" fill="rgb(50, 49, 63)" stroke="none" stroke-width="1px">100</text><text x="145" y="0" dx="0em" dy="0.95em" style="text-anchor: middle; visibility: inherit; font-family: Roboto, sans-serif; font-size: 12px; font-weight: 200;" fill="rgb(50, 49, 63)" stroke="none" stroke-width="1px">150</text><text x="181.25" y="0" dx="0em" dy="0.95em" style="text-anchor: middle; visibility: inherit; font-family: Roboto, sans-serif; font-size: 12px; font-weight: 200;" fill="rgb(50, 49, 63)" stroke="none" stroke-width="1px">200</text><text x="217.5" y="0" dx="0em" dy="0.95em" style="text-anchor: middle; visibility: inherit; font-family: Roboto, sans-serif; font-size: 12px; font-weight: 200;" fill="rgb(50, 49, 63)" stroke="none" stroke-width="1px">250</text><text x="253.75" y="0" dx="0em" dy="0.95em" style="text-anchor: middle; visibility: inherit; font-family: Roboto, sans-serif; font-size: 12px; font-weight: 200;" fill="rgb(50, 49, 63)" stroke="none" stroke-width="1px">300</text><text x="290" y="0" dx="0em" dy="0.95em" style="text-anchor: middle; visibility: hidden; font-family: Roboto, sans-serif; font-size: 12px; font-weight: 200;" fill="rgb(50, 49, 63)" stroke="none" stroke-width="1px">350</text></g><line x1="0" y1="0" x2="290" y2="0" fill="rgb(0, 0, 0)" stroke="rgb(204, 204, 204)" stroke-width="1px"></line></g></g></g></g></svg>